<svg id="Camada_1" data-name="Camada 1" xmlns="http://www.w3.org/2000/svg" viewBox="0 0 772.14 692.65"><defs><style>.cls-1{fill:#009cdf;}.cls-2{fill:#1d1d1b;}.cls-3{fill:#021d33;}</style></defs><path class="cls-1" d="M248.76,310.88s-13-21.77-26.32-.15L70.17,558.38S56.88,580,82.25,580H384.5s25.37,0,12.34-21.77Z" transform="translate(-14.98 -14.32)"/><path class="cls-2" d="M725.27,672q0,9.22,6.12,13.7T747,690.16a37.93,37.93,0,0,0,6.41-.55,24.33,24.33,0,0,0,6.19-1.93,12.13,12.13,0,0,0,4.76-3.79,9.77,9.77,0,0,0,1.79-6,8.78,8.78,0,0,0-1.79-5.58,15,15,0,0,0-4.82-3.86,39.45,39.45,0,0,0-6.62-2.68q-3.59-1.11-9.64-2.48c-2.66-.73-4.78-1.29-6.34-1.65-4.31-1.2-8.13-2.44-11.43-3.73a36.74,36.74,0,0,1-9-5A22.71,22.71,0,0,1,710,645a24.8,24.8,0,0,1-2.41-11.36,26.44,26.44,0,0,1,3.1-12.95,27.46,27.46,0,0,1,8.4-9.37A39.14,39.14,0,0,1,731,605.78a48.87,48.87,0,0,1,13.43-1.86,61.66,61.66,0,0,1,15.09,1.79A37.23,37.23,0,0,1,772,611.36a27.63,27.63,0,0,1,8.61,9.92,30.45,30.45,0,0,1,3.17,14.33H762.87q-.4-8.26-5.58-11.57t-13.84-3.31A19.33,19.33,0,0,0,733,623.49a9.21,9.21,0,0,0-4.41,8.4,8.48,8.48,0,0,0,1.1,4.61,9,9,0,0,0,3.86,3,53.39,53.39,0,0,0,7.3,2.69q4.54,1.38,14.88,4a11.32,11.32,0,0,1,2.2.55,2.66,2.66,0,0,0,.83.13,89.75,89.75,0,0,1,9.09,2.76,40.24,40.24,0,0,1,8.68,4.61,24.68,24.68,0,0,1,10.61,21.15,28,28,0,0,1-10.75,22.8Q765.63,707,746.2,707a59.65,59.65,0,0,1-15.91-2.07,40,40,0,0,1-13.36-6.4,30.8,30.8,0,0,1-9.23-11,34,34,0,0,1-3.38-15.5ZM641,666.6h25.49L654,630.51h-.27ZM643,606.26H665.2L702,704.63H679.53l-7.44-21.91H635.31l-7.72,21.91h-21.9Zm-104.7,44.5H562q7.44,0,11.16-3.37t3.72-10.68q0-7-3.72-10.33T562,623.07h-23.7Zm-21.62-44.5h53a32.69,32.69,0,0,1,11.85,2.07,26,26,0,0,1,14.95,14.54,27.57,27.57,0,0,1,2,10.53,29,29,0,0,1-3.79,15.23q-3.79,6.27-11.78,9.43v.28a15.88,15.88,0,0,1,10.54,8.06,36.88,36.88,0,0,1,3.79,14.94c0,.37,0,1.47.13,3.31q.42,7,1.18,12a19.17,19.17,0,0,0,2.82,8H579.79a22.68,22.68,0,0,1-1.72-6.34c-.32-2.39-.62-5.46-.9-9.23-.27-3.49-.55-6.15-.82-8q-1.11-8-4.75-11.44T560,666.19H538.32v38.44H516.7Zm-41.06,98.37H451.26l-32-98.37h22.32l21.9,69.16h.28L486,606.26H508.3Zm-109-38h25.49l-12.4-36.09h-.27Zm2.07-60.34h22.18l36.78,98.37H405.25l-7.44-21.91H361l-7.72,21.91h-21.9Zm-108.55,0h21.63v80.18h47.94v18.19H260.19Zm-40.64,0h21.63v98.37H219.55Zm-102.08,0H139l41,66h.28v-66h20.25v98.37H178.91L138,638.78h-.27v65.85H117.47Zm-18.6,61.17q0,19.56-11,29.55T56.85,707q-20.1,0-31-9.92T15,667.43V606.26H36.6v61.17a41.21,41.21,0,0,0,.76,8.27,16.54,16.54,0,0,0,3,6.68,14.66,14.66,0,0,0,6.27,4.68,26.41,26.41,0,0,0,10.26,1.72q11.29,0,15.85-5t4.54-16.32V606.26H98.87Z" transform="translate(-14.98 -14.32)"/><path class="cls-3" d="M725.14,558.79,413.77,23.67S401.43,2.45,389.58,24L287.43,209.45s-11.84,21.5,1,42.44l43.13,70.51A109.46,109.46,0,0,1,439.06,498.22l37.22,60.84S489.09,580,513.63,580H712.94s24.55,0,12.2-21.21" transform="translate(-14.98 -14.32)"/></svg>